<?xml version="1.0" standalone="no"?>
<!DOCTYPE svg PUBLIC "-//W3C//DTD SVG 20010904//EN"
 "http://www.w3.org/TR/2001/REC-SVG-20010904/DTD/svg10.dtd">
<svg version="1.0" xmlns="http://www.w3.org/2000/svg"
 width="640.000000pt" height="360.000000pt" viewBox="0 0 640.000000 360.000000"
 preserveAspectRatio="xMidYMid meet">

<g transform="translate(0.000000,360.000000) scale(0.100000,-0.100000)"
fill="#000000" stroke="none">
<path d="M2526 2190 c-121 -21 -241 -114 -294 -228 -24 -50 -27 -69 -27 -162
0 -93 3 -111 27 -163 75 -160 253 -258 419 -228 249 44 396 288 314 522 -63
178 -253 290 -439 259z m184 -155 c166 -84 188 -324 43 -445 -141 -116 -355
-46 -408 134 -19 63 -19 90 1 156 11 37 30 68 63 102 84 89 193 108 301 53z"/>
<path d="M420 1800 l0 -380 68 0 68 0 293 366 c160 201 295 372 298 380 5 13
-8 14 -78 12 l-84 -3 -208 -260 c-115 -143 -213 -261 -218 -263 -5 -2 -9 103
-9 262 l0 266 -65 0 -65 0 0 -380z"/>
<path d="M1409 2174 c-14 -4 -573 -693 -602 -741 -6 -10 9 -13 77 -13 l84 0
108 135 c59 74 111 132 114 128 4 -5 53 -66 109 -136 l103 -128 66 3 67 3 0
375 0 375 -55 2 c-30 0 -62 -1 -71 -3z m-11 -460 l-3 -86 -68 85 -68 86 68 85
68 85 3 -84 c1 -47 1 -124 0 -171z"/>
<path d="M1720 1800 l0 -380 180 0 179 0 52 63 52 62 -166 3 -167 2 0 315 0
315 -65 0 -65 0 0 -380z"/>
<path d="M3125 2168 c-3 -7 -4 -177 -3 -378 l3 -365 68 -3 67 -3 0 316 0 315
165 0 c91 0 165 -2 165 -5 0 -3 -50 -68 -111 -145 -71 -89 -108 -144 -103
-152 14 -23 248 -313 258 -320 13 -9 166 -11 166 -2 0 6 -46 66 -174 226 l-85
107 95 118 94 118 -2 90 -3 90 -298 3 c-233 2 -299 0 -302 -10z"/>
<path d="M3930 1800 l0 -380 68 0 69 0 103 130 c57 72 108 129 114 127 5 -2
55 -59 111 -128 l101 -124 82 -3 c45 -2 82 1 82 5 0 10 -578 735 -593 745 -7
4 -40 8 -74 8 l-63 0 0 -380z m209 84 c34 -42 61 -81 61 -86 0 -15 -127 -168
-134 -161 -10 10 -7 323 3 323 5 0 37 -34 70 -76z"/>
<path d="M4567 2173 c-4 -3 -7 -88 -7 -189 l0 -182 68 -84 67 -83 5 159 5 159
212 -266 213 -267 70 0 70 0 -2 378 -3 377 -65 0 -65 0 -5 -264 -5 -265 -199
250 c-109 137 -207 257 -218 267 -14 12 -37 17 -77 17 -32 0 -61 -3 -64 -7z"/>
<path d="M5374 2166 c-3 -7 -4 -35 -2 -62 l3 -49 108 -3 107 -3 0 -315 0 -315
68 3 67 3 0 310 0 310 128 3 c70 1 127 5 127 8 0 7 -81 106 -95 116 -5 4 -122
8 -258 8 -201 0 -249 -3 -253 -14z"/>
</g>
</svg>
