<svg id="Layer_1" enable-background="new 0 0 512.039 512.039" height="512" viewBox="0 0 512.039 512.039" width="512" xmlns="http://www.w3.org/2000/svg"><g><path d="m110.02 448.039-8 32h-62v-32z" fill="#595965"/><path d="m88.02 448.039-8 32h22l8-32z" fill="#44454e"/><path d="m144.02 136.039 32-48-32-32 48-48c17.59 76.967 62.558 273.693 64 280z" fill="#595965"/><path d="m472.02 448.039h-70l14 56h-128l-32-80-32 80h-128l14-56h-70v-334.83c0-24.95 14.95-47.46 37.94-57.14l114.06-48.03-48 48 32 32-32 48 112 152 112-152-32-48 32-32-48-48 114.06 48.03c22.99 9.68 37.94 32.19 37.94 57.14z" fill="#edebfd"/><path d="m434.08 56.069-114.06-48.03 17.458 17.458 72.603 30.573c22.99 9.68 37.94 32.19 37.94 57.14v334.83h24v-334.83c-.001-24.951-14.951-47.461-37.941-57.141z" fill="#d2d2fc"/><path d="m336.02 88.039 32 48-112 152c1.53-6.695 46.456-203.237 64-280l48 48z" fill="#595965"/><path d="m368.02 56.039-48-48-4.465 19.536 28.465 28.464-32 32 32 48-77.207 104.781-10.793 47.219 112-152-32-48z" fill="#44454e"/><path d="m320.02 8.039-10.97 48h-106.06l-10.97-48z" fill="#9da0df"/><path d="m192.02 8.039 10.97 48h24l-10.97-48z" fill="#8286c6"/><path d="m309.05 56.039-53.03 232-53.03-232z" fill="#696ead"/><path d="m226.99 56.039h-24l53.03 232 12-52.498z" fill="#505795"/><path d="m472.02 448.039v32h-62l-8-32z" fill="#595965"/><path d="m448.02 448.039h24v32h-24z" fill="#44454e"/><path d="m224.02 392.039c4.418 0 8-3.582 8-8s-3.582-8-8-8h-64c-4.418 0-8 3.582-8 8s3.582 8 8 8z"/><path d="m437.184 48.691c-.1-.042-114.355-48.129-114.255-48.104-3.076-.769 6.594-.548-66.909-.548-70.682 0-64.506-.255-66.874.534-1.058.529 13.593-5.728-114.29 48.118-26.022 10.957-42.836 36.28-42.836 64.515v366.833c0 4.418 3.582 8 8 8h51.754l-3.515 14.06c-1.262 5.053 2.566 9.94 7.761 9.94h127.956c2.895 0 5.548-1.536 6.967-4.004.473-.818-1.131 3.063 25.077-62.456 26.287 65.717 24.623 61.672 25.076 62.455 1.408 2.452 4.057 4.005 6.968 4.005h127.956c5.207 0 9.021-4.9 7.761-9.94l-3.515-14.06h51.754c4.418 0 8-3.582 8-8 0-15.96 0-348.524 0-366.833 0-28.235-16.815-53.558-42.836-64.515zm-112.59-24.763 32.112 32.112-26.344 26.343c-2.696 2.696-3.114 6.921-.999 10.094l28.889 43.333-85.867 116.533zm-68.574 228.209-42.994-188.098h85.987zm53.965-236.098-7.314 32c-11.334 0-81.938 0-93.302 0l-7.314-32zm-70.331 236.304-85.866-116.533 28.888-43.333c2.115-3.173 1.697-7.398-1-10.094l-26.343-26.343 32.112-32.112zm-191.634 219.696v-16h51.754l-4 16zm103.761-158.059c.72-2.882 2.644 6.695-40-163.881-1.072-4.287-5.416-6.893-9.702-5.821s-6.892 5.415-5.821 9.702l39.515 158.06-32 128h-55.753v-326.834c0-21.781 12.971-41.316 33.045-49.769l76.42-32.177-19.122 19.122c-3.125 3.124-3.125 8.189 0 11.313l27.362 27.363-28.362 42.543c-1.868 2.801-1.782 6.473.216 9.183l110.44 149.883v131.831l-29.416 73.541h-112.337zm141.655 182.059-29.416-73.541v-131.83l110.44-149.883c1.997-2.71 2.084-6.382.216-9.183l-28.362-42.543 27.363-27.363c3.124-3.124 3.124-8.189 0-11.313l-19.122-19.122 76.42 32.177c20.074 8.452 33.045 27.988 33.045 49.769v326.833h-55.754l-32-128 39.515-158.06c1.072-4.287-1.534-8.63-5.82-9.702-4.285-1.068-8.63 1.535-9.701 5.821-42.682 170.729-40.716 161.025-40 163.881l45.515 182.06h-112.339zm170.584-24h-47.754l-4-16h51.754z"/><path d="m352.02 376.039h-64c-4.418 0-8 3.582-8 8s3.582 8 8 8h64c4.418 0 8-3.582 8-8s-3.582-8-8-8z"/><circle cx="72.02" cy="416.039" r="8"/><circle cx="72.02" cy="384.039" r="8"/><circle cx="440.02" cy="416.039" r="8"/><circle cx="440.02" cy="384.039" r="8"/><circle cx="328.02" cy="136.039" r="8"/><circle cx="184.02" cy="136.039" r="8"/></g></svg>